<mxfile host="app.diagrams.net" modified="2020-12-18T07:15:34.210Z" agent="5.0 (Windows NT 10.0; Win64; x64) AppleWebKit/537.36 (KHTML, like Gecko) Chrome/87.0.4280.101 Safari/537.36" etag="tepuJJ6ygZ35czKOMJwo" version="13.10.8" type="github" pages="4">
  <diagram id="691d49e7-cec1-028b-15b3-21c62664a0ac" name="Habit Tracker example">
    <mxGraphModel dx="2062" dy="798" grid="1" gridSize="10" guides="1" tooltips="1" connect="1" arrows="1" fold="1" page="1" pageScale="1" pageWidth="850" pageHeight="1100" math="0" shadow="0">
      <root>
        <mxCell id="0" />
        <mxCell id="1" parent="0" />
        <mxCell id="19b9a4ddcf14029d-30" style="edgeStyle=elbowEdgeStyle;rounded=0;elbow=horizontal;html=1;exitX=1;exitY=0.5;entryX=0;entryY=0.186;entryPerimeter=0;labelBackgroundColor=none;endArrow=open;endSize=12;strokeColor=#FF8000;fontColor=#000000;align=right;" parent="1" source="19b9a4ddcf14029d-6" target="19b9a4ddcf14029d-7" edge="1">
          <mxGeometry relative="1" as="geometry" />
        </mxCell>
        <mxCell id="19b9a4ddcf14029d-53" value="Start simulation" style="text;html=1;resizable=0;points=[];align=center;verticalAlign=middle;labelBackgroundColor=#ffffff;fontSize=11;fontColor=#0000CC;" parent="19b9a4ddcf14029d-30" vertex="1" connectable="0">
          <mxGeometry x="-0.4286" y="-19" relative="1" as="geometry">
            <mxPoint x="11" y="-19" as="offset" />
          </mxGeometry>
        </mxCell>
        <mxCell id="19b9a4ddcf14029d-6" value="" style="shape=ellipse;html=1;fillColor=#FF8000;fontSize=18;fontColor=#ffffff;strokeColor=#0000CC;align=center;" parent="1" vertex="1">
          <mxGeometry x="20" y="260" width="40" height="40" as="geometry" />
        </mxCell>
        <mxCell id="19b9a4ddcf14029d-55" style="edgeStyle=orthogonalEdgeStyle;rounded=0;html=1;labelBackgroundColor=none;endArrow=open;endFill=0;endSize=12;strokeColor=#FF8000;fontSize=11;fontColor=#0000CC;align=right;" parent="1" source="19b9a4ddcf14029d-7" target="19b9a4ddcf14029d-54" edge="1">
          <mxGeometry relative="1" as="geometry" />
        </mxCell>
        <mxCell id="19b9a4ddcf14029d-56" value="End simulation" style="text;html=1;resizable=0;points=[];align=center;verticalAlign=middle;labelBackgroundColor=#ffffff;fontSize=11;fontColor=#0000CC;" parent="19b9a4ddcf14029d-55" vertex="1" connectable="0">
          <mxGeometry x="-0.2903" y="1" relative="1" as="geometry">
            <mxPoint x="29.17" y="1" as="offset" />
          </mxGeometry>
        </mxCell>
        <mxCell id="19b9a4ddcf14029d-7" value="Simulation running" style="shape=mxgraph.sysml.compState;align=left;verticalAlign=top;spacingTop=-3;spacingLeft=18;strokeWidth=1;recursiveResize=0;fillColor=#FFFFFF;fontColor=#0000CC;strokeColor=#0000CC;" parent="1" vertex="1">
          <mxGeometry x="210" y="200" width="640" height="430" as="geometry" />
        </mxCell>
        <mxCell id="19b9a4ddcf14029d-8" value="" style="shape=ellipse;html=1;fillColor=#FF8000;verticalLabelPosition=bottom;labelBackgroundColor=#ffffff;verticalAlign=top;" parent="19b9a4ddcf14029d-7" vertex="1">
          <mxGeometry x="20" y="60" width="20" height="20" as="geometry" />
        </mxCell>
        <mxCell id="19b9a4ddcf14029d-17" value="Trace&lt;br&gt;(O-PK)" style="edgeStyle=elbowEdgeStyle;rounded=0;elbow=horizontal;html=1;labelBackgroundColor=#ffffff;endArrow=classic;strokeColor=#000000;fontColor=#000000;align=center;exitX=0.5;exitY=0;exitDx=0;exitDy=0;" parent="19b9a4ddcf14029d-7" source="19b9a4ddcf14029d-9" target="C0cV5x6NyApnS8iazqoK-20" edge="1">
          <mxGeometry x="-0.5714" relative="1" as="geometry">
            <mxPoint x="65" y="205" as="sourcePoint" />
            <mxPoint x="20.000000000000227" y="125" as="targetPoint" />
            <Array as="points">
              <mxPoint x="120" y="155" />
            </Array>
            <mxPoint as="offset" />
          </mxGeometry>
        </mxCell>
        <mxCell id="C0cV5x6NyApnS8iazqoK-124" style="edgeStyle=orthogonalEdgeStyle;rounded=0;orthogonalLoop=1;jettySize=auto;html=1;exitX=0.5;exitY=1;exitDx=0;exitDy=0;entryX=0;entryY=0.5;entryDx=0;entryDy=0;" parent="19b9a4ddcf14029d-7" source="19b9a4ddcf14029d-9" target="C0cV5x6NyApnS8iazqoK-81" edge="1">
          <mxGeometry relative="1" as="geometry" />
        </mxCell>
        <mxCell id="C0cV5x6NyApnS8iazqoK-125" value="Trace&lt;br&gt;(O-T)" style="edgeLabel;html=1;align=center;verticalAlign=middle;resizable=0;points=[];" parent="C0cV5x6NyApnS8iazqoK-124" vertex="1" connectable="0">
          <mxGeometry x="-0.2738" relative="1" as="geometry">
            <mxPoint as="offset" />
          </mxGeometry>
        </mxCell>
        <mxCell id="19b9a4ddcf14029d-9" value="Node&lt;br&gt;(Origin)" style="strokeColor=#0000CC;fillColor=inherit;gradientColor=inherit;shape=rect;html=1;rounded=1;whiteSpace=wrap;align=center;fontColor=#0000CC;" parent="19b9a4ddcf14029d-7" vertex="1">
          <mxGeometry x="70" y="205" width="100" height="40" as="geometry" />
        </mxCell>
        <mxCell id="19b9a4ddcf14029d-11" value="" style="strokeColor=#FF8000;fillColor=inherit;gradientColor=inherit;edgeStyle=none;html=1;endArrow=open;endSize=12;entryX=0;entryY=0.75;entryDx=0;entryDy=0;" parent="19b9a4ddcf14029d-7" source="19b9a4ddcf14029d-8" target="19b9a4ddcf14029d-9" edge="1">
          <mxGeometry relative="1" as="geometry" />
        </mxCell>
        <mxCell id="C0cV5x6NyApnS8iazqoK-47" style="edgeStyle=orthogonalEdgeStyle;rounded=0;orthogonalLoop=1;jettySize=auto;html=1;exitX=1;exitY=0.75;exitDx=0;exitDy=0;entryX=0;entryY=0.75;entryDx=0;entryDy=0;" parent="19b9a4ddcf14029d-7" source="C0cV5x6NyApnS8iazqoK-20" target="C0cV5x6NyApnS8iazqoK-46" edge="1">
          <mxGeometry relative="1" as="geometry" />
        </mxCell>
        <mxCell id="C0cV5x6NyApnS8iazqoK-76" value="Trace&amp;nbsp;(PK-DP)" style="edgeLabel;html=1;align=center;verticalAlign=middle;resizable=0;points=[];" parent="C0cV5x6NyApnS8iazqoK-47" vertex="1" connectable="0">
          <mxGeometry x="-0.0621" y="1" relative="1" as="geometry">
            <mxPoint as="offset" />
          </mxGeometry>
        </mxCell>
        <mxCell id="C0cV5x6NyApnS8iazqoK-89" value="Trace&lt;br&gt;(PK-M)" style="edgeStyle=orthogonalEdgeStyle;rounded=0;orthogonalLoop=1;jettySize=auto;html=1;exitX=0.5;exitY=1;exitDx=0;exitDy=0;entryX=0;entryY=0.25;entryDx=0;entryDy=0;" parent="19b9a4ddcf14029d-7" source="C0cV5x6NyApnS8iazqoK-20" target="C0cV5x6NyApnS8iazqoK-85" edge="1">
          <mxGeometry x="-0.5385" relative="1" as="geometry">
            <mxPoint as="offset" />
          </mxGeometry>
        </mxCell>
        <mxCell id="C0cV5x6NyApnS8iazqoK-20" value="Node&lt;br&gt;(Pickup)" style="strokeColor=#0000CC;fillColor=inherit;gradientColor=inherit;shape=rect;html=1;rounded=1;whiteSpace=wrap;align=center;fontColor=#0000CC;" parent="19b9a4ddcf14029d-7" vertex="1">
          <mxGeometry x="180" y="105" width="100" height="40" as="geometry" />
        </mxCell>
        <mxCell id="C0cV5x6NyApnS8iazqoK-75" style="edgeStyle=orthogonalEdgeStyle;rounded=0;orthogonalLoop=1;jettySize=auto;html=1;entryX=1;entryY=0.25;entryDx=0;entryDy=0;exitX=0.5;exitY=1;exitDx=0;exitDy=0;" parent="19b9a4ddcf14029d-7" source="C0cV5x6NyApnS8iazqoK-111" target="C0cV5x6NyApnS8iazqoK-74" edge="1">
          <mxGeometry relative="1" as="geometry">
            <mxPoint x="481" y="144" as="sourcePoint" />
          </mxGeometry>
        </mxCell>
        <mxCell id="C0cV5x6NyApnS8iazqoK-79" value="Trace&lt;br&gt;(-)" style="edgeLabel;html=1;align=center;verticalAlign=middle;resizable=0;points=[];" parent="C0cV5x6NyApnS8iazqoK-75" vertex="1" connectable="0">
          <mxGeometry x="-0.0756" relative="1" as="geometry">
            <mxPoint as="offset" />
          </mxGeometry>
        </mxCell>
        <mxCell id="C0cV5x6NyApnS8iazqoK-77" style="edgeStyle=orthogonalEdgeStyle;rounded=0;orthogonalLoop=1;jettySize=auto;html=1;exitX=0;exitY=0.25;exitDx=0;exitDy=0;entryX=1;entryY=0.25;entryDx=0;entryDy=0;" parent="19b9a4ddcf14029d-7" source="C0cV5x6NyApnS8iazqoK-46" target="C0cV5x6NyApnS8iazqoK-20" edge="1">
          <mxGeometry relative="1" as="geometry" />
        </mxCell>
        <mxCell id="C0cV5x6NyApnS8iazqoK-78" value="Trace (DP-PK)" style="edgeLabel;html=1;align=center;verticalAlign=middle;resizable=0;points=[];" parent="C0cV5x6NyApnS8iazqoK-77" vertex="1" connectable="0">
          <mxGeometry x="0.1811" y="1" relative="1" as="geometry">
            <mxPoint x="6.57" as="offset" />
          </mxGeometry>
        </mxCell>
        <mxCell id="C0cV5x6NyApnS8iazqoK-80" value="Trace&lt;br&gt;(DP-DP)" style="edgeStyle=orthogonalEdgeStyle;rounded=0;orthogonalLoop=1;jettySize=auto;html=1;entryX=0.75;entryY=0;entryDx=0;entryDy=0;exitX=0.25;exitY=0;exitDx=0;exitDy=0;" parent="19b9a4ddcf14029d-7" source="C0cV5x6NyApnS8iazqoK-46" target="C0cV5x6NyApnS8iazqoK-46" edge="1">
          <mxGeometry relative="1" as="geometry">
            <Array as="points">
              <mxPoint x="435" y="65" />
              <mxPoint x="485" y="65" />
            </Array>
          </mxGeometry>
        </mxCell>
        <mxCell id="C0cV5x6NyApnS8iazqoK-109" value="Trace&lt;br&gt;(DP-M)" style="edgeStyle=orthogonalEdgeStyle;rounded=0;orthogonalLoop=1;jettySize=auto;html=1;exitX=0.5;exitY=1;exitDx=0;exitDy=0;entryX=1;entryY=0.25;entryDx=0;entryDy=0;" parent="19b9a4ddcf14029d-7" source="C0cV5x6NyApnS8iazqoK-46" target="C0cV5x6NyApnS8iazqoK-85" edge="1">
          <mxGeometry x="-0.5714" relative="1" as="geometry">
            <mxPoint as="offset" />
          </mxGeometry>
        </mxCell>
        <mxCell id="C0cV5x6NyApnS8iazqoK-117" style="edgeStyle=orthogonalEdgeStyle;rounded=0;orthogonalLoop=1;jettySize=auto;html=1;exitX=1;exitY=0.75;exitDx=0;exitDy=0;entryX=0.5;entryY=0;entryDx=0;entryDy=0;" parent="19b9a4ddcf14029d-7" source="C0cV5x6NyApnS8iazqoK-46" target="C0cV5x6NyApnS8iazqoK-111" edge="1">
          <mxGeometry relative="1" as="geometry" />
        </mxCell>
        <mxCell id="C0cV5x6NyApnS8iazqoK-118" value="[nPassengers=0]" style="edgeLabel;html=1;align=center;verticalAlign=middle;resizable=0;points=[];" parent="C0cV5x6NyApnS8iazqoK-117" vertex="1" connectable="0">
          <mxGeometry x="-0.2952" y="-2" relative="1" as="geometry">
            <mxPoint x="47" y="12.38" as="offset" />
          </mxGeometry>
        </mxCell>
        <mxCell id="C0cV5x6NyApnS8iazqoK-46" value="Node&lt;br&gt;(Dropoff)" style="strokeColor=#0000CC;fillColor=inherit;gradientColor=inherit;shape=rect;html=1;rounded=1;whiteSpace=wrap;align=center;fontColor=#0000CC;" parent="19b9a4ddcf14029d-7" vertex="1">
          <mxGeometry x="410" y="105" width="100" height="40" as="geometry" />
        </mxCell>
        <mxCell id="C0cV5x6NyApnS8iazqoK-49" value="Trace&lt;br&gt;(PK-PK)" style="edgeStyle=orthogonalEdgeStyle;rounded=0;orthogonalLoop=1;jettySize=auto;html=1;" parent="19b9a4ddcf14029d-7" edge="1">
          <mxGeometry relative="1" as="geometry">
            <mxPoint x="255" y="105" as="sourcePoint" />
            <mxPoint x="205" y="105" as="targetPoint" />
            <Array as="points">
              <mxPoint x="255" y="65" />
              <mxPoint x="205" y="65" />
            </Array>
          </mxGeometry>
        </mxCell>
        <mxCell id="C0cV5x6NyApnS8iazqoK-84" value="Trace&lt;br&gt;(I-T)" style="edgeStyle=orthogonalEdgeStyle;rounded=0;orthogonalLoop=1;jettySize=auto;html=1;exitX=0;exitY=0.5;exitDx=0;exitDy=0;" parent="19b9a4ddcf14029d-7" source="C0cV5x6NyApnS8iazqoK-74" target="C0cV5x6NyApnS8iazqoK-81" edge="1">
          <mxGeometry relative="1" as="geometry" />
        </mxCell>
        <mxCell id="C0cV5x6NyApnS8iazqoK-74" value="Node&lt;br&gt;(Idle)" style="strokeColor=#0000CC;fillColor=inherit;gradientColor=inherit;shape=rect;html=1;rounded=1;whiteSpace=wrap;align=center;fontColor=#0000CC;" parent="19b9a4ddcf14029d-7" vertex="1">
          <mxGeometry x="410" y="305" width="100" height="40" as="geometry" />
        </mxCell>
        <mxCell id="C0cV5x6NyApnS8iazqoK-87" style="edgeStyle=orthogonalEdgeStyle;rounded=0;orthogonalLoop=1;jettySize=auto;html=1;exitX=0.5;exitY=1;exitDx=0;exitDy=0;entryX=0.5;entryY=1;entryDx=0;entryDy=0;" parent="19b9a4ddcf14029d-7" source="C0cV5x6NyApnS8iazqoK-81" target="C0cV5x6NyApnS8iazqoK-74" edge="1">
          <mxGeometry relative="1" as="geometry" />
        </mxCell>
        <mxCell id="C0cV5x6NyApnS8iazqoK-88" value="Trace&lt;br&gt;(-)" style="edgeLabel;html=1;align=center;verticalAlign=middle;resizable=0;points=[];" parent="C0cV5x6NyApnS8iazqoK-87" vertex="1" connectable="0">
          <mxGeometry x="-0.2321" relative="1" as="geometry">
            <mxPoint x="36.57" as="offset" />
          </mxGeometry>
        </mxCell>
        <mxCell id="C0cV5x6NyApnS8iazqoK-107" style="edgeStyle=orthogonalEdgeStyle;rounded=0;orthogonalLoop=1;jettySize=auto;html=1;exitX=0.5;exitY=0;exitDx=0;exitDy=0;entryX=0.25;entryY=1;entryDx=0;entryDy=0;" parent="19b9a4ddcf14029d-7" source="C0cV5x6NyApnS8iazqoK-81" target="C0cV5x6NyApnS8iazqoK-85" edge="1">
          <mxGeometry relative="1" as="geometry" />
        </mxCell>
        <mxCell id="C0cV5x6NyApnS8iazqoK-108" value="Trace&lt;br&gt;(T-M)" style="edgeLabel;html=1;align=center;verticalAlign=middle;resizable=0;points=[];" parent="C0cV5x6NyApnS8iazqoK-107" vertex="1" connectable="0">
          <mxGeometry x="0.1755" y="-3" relative="1" as="geometry">
            <mxPoint as="offset" />
          </mxGeometry>
        </mxCell>
        <mxCell id="C0cV5x6NyApnS8iazqoK-81" value="Node&lt;br&gt;(Target)" style="strokeColor=#0000CC;fillColor=inherit;gradientColor=inherit;shape=rect;html=1;rounded=1;whiteSpace=wrap;align=center;fontColor=#0000CC;" parent="19b9a4ddcf14029d-7" vertex="1">
          <mxGeometry x="180" y="305" width="100" height="40" as="geometry" />
        </mxCell>
        <mxCell id="C0cV5x6NyApnS8iazqoK-90" value="Trace&lt;br&gt;(M-PK)" style="edgeStyle=orthogonalEdgeStyle;rounded=0;orthogonalLoop=1;jettySize=auto;html=1;exitX=0;exitY=0.75;exitDx=0;exitDy=0;entryX=0.25;entryY=1;entryDx=0;entryDy=0;" parent="19b9a4ddcf14029d-7" source="C0cV5x6NyApnS8iazqoK-85" target="C0cV5x6NyApnS8iazqoK-20" edge="1">
          <mxGeometry relative="1" as="geometry" />
        </mxCell>
        <mxCell id="C0cV5x6NyApnS8iazqoK-119" value="Trace&lt;br&gt;(M-DP)" style="edgeStyle=orthogonalEdgeStyle;rounded=0;orthogonalLoop=1;jettySize=auto;html=1;exitX=1;exitY=0.75;exitDx=0;exitDy=0;entryX=0.75;entryY=1;entryDx=0;entryDy=0;" parent="19b9a4ddcf14029d-7" source="C0cV5x6NyApnS8iazqoK-85" target="C0cV5x6NyApnS8iazqoK-46" edge="1">
          <mxGeometry relative="1" as="geometry" />
        </mxCell>
        <mxCell id="C0cV5x6NyApnS8iazqoK-85" value="Node&lt;br&gt;(Middle)" style="strokeColor=#0000CC;fillColor=inherit;gradientColor=inherit;shape=rect;html=1;rounded=1;whiteSpace=wrap;align=center;fontColor=#0000CC;" parent="19b9a4ddcf14029d-7" vertex="1">
          <mxGeometry x="290" y="205" width="100" height="40" as="geometry" />
        </mxCell>
        <mxCell id="C0cV5x6NyApnS8iazqoK-111" value="" style="shape=rhombus;html=1;labelPosition=right;align=left;verticalAlign=middle;strokeColor=#0000CC;fillColor=#FF9933;fontColor=#000000;" parent="19b9a4ddcf14029d-7" vertex="1">
          <mxGeometry x="520" y="195" width="30" height="30" as="geometry" />
        </mxCell>
        <mxCell id="19b9a4ddcf14029d-54" value="" style="shape=mxgraph.sysml.actFinal;html=1;verticalLabelPosition=bottom;labelBackgroundColor=#ffffff;verticalAlign=top;strokeColor=#FF8000;fillColor=#FFFFFF;fontSize=11;fontColor=#0000CC;align=center;" parent="1" vertex="1">
          <mxGeometry x="1050" y="395" width="40" height="40" as="geometry" />
        </mxCell>
      </root>
    </mxGraphModel>
  </diagram>
  <diagram id="953ecbd5-e552-5fde-5075-6d809326a53c" name="State diagram notation">
    <mxGraphModel pageWidth="850" pageHeight="1100" fold="1" pageScale="1" math="0" shadow="0">
      <root>
        <mxCell id="0" />
        <mxCell id="1" parent="0" />
        <mxCell id="19b9a4ddcf14029d-29" value="" style="shape=ellipse;html=1;fillColor=#000000;fontSize=18;fontColor=#000000;strokeColor=#000000;" vertex="1" parent="1">
          <mxGeometry x="40" y="140" width="40" height="40" as="geometry" />
        </mxCell>
        <mxCell id="19b9a4ddcf14029d-30" value="" style="shape=mxgraph.sysml.actFinal;html=1;verticalLabelPosition=bottom;labelBackgroundColor=#ffffff;verticalAlign=top;fontColor=#000000;fillColor=#FFFFFF;strokeColor=#000000;" vertex="1" parent="1">
          <mxGeometry x="40" y="200" width="40" height="40" as="geometry" />
        </mxCell>
        <mxCell id="19b9a4ddcf14029d-31" value="State" style="shape=rect;rounded=1;html=1;whiteSpace=wrap;align=center;fontColor=#000000;fillColor=#ffffff;strokeColor=#000000;" vertex="1" parent="1">
          <mxGeometry x="140" y="147" width="100" height="40" as="geometry" />
        </mxCell>
        <mxCell id="19b9a4ddcf14029d-58" style="edgeStyle=elbowEdgeStyle;rounded=0;elbow=horizontal;html=1;labelBackgroundColor=none;endArrow=open;endSize=12;align=right;fontColor=#000000;strokeColor=#000000;" edge="1" source="19b9a4ddcf14029d-32" parent="1">
          <mxGeometry relative="1" as="geometry">
            <mxPoint x="360" y="280" as="targetPoint" />
          </mxGeometry>
        </mxCell>
        <mxCell id="19b9a4ddcf14029d-32" value="&lt;p style=&quot;margin: 0px ; margin-top: 4px ; text-align: center&quot;&gt;State with activities&lt;/p&gt;&lt;hr&gt;&lt;p&gt;&lt;/p&gt;&lt;p style=&quot;margin: 0px ; margin-left: 8px ; text-align: left&quot;&gt;entry / entryActivity&lt;br&gt;do / doActivity&lt;br&gt;exit / exitActivity&lt;/p&gt;" style="shape=mxgraph.sysml.simpleState;html=1;overflow=fill;whiteSpace=wrap;align=center;fontColor=#000000;fillColor=#FFFFFF;strokeColor=#000000;" vertex="1" parent="1">
          <mxGeometry x="260" y="147" width="200" height="100" as="geometry" />
        </mxCell>
        <mxCell id="19b9a4ddcf14029d-59" style="edgeStyle=elbowEdgeStyle;rounded=0;elbow=horizontal;html=1;labelBackgroundColor=none;endArrow=open;endSize=12;align=right;fontColor=#000000;strokeColor=#000000;" edge="1" source="19b9a4ddcf14029d-33" parent="1">
          <mxGeometry relative="1" as="geometry">
            <mxPoint x="600" y="360" as="targetPoint" />
          </mxGeometry>
        </mxCell>
        <mxCell id="19b9a4ddcf14029d-33" value="Composite state" style="shape=mxgraph.sysml.compState;align=left;verticalAlign=top;spacingTop=-3;spacingLeft=18;strokeWidth=1;recursiveResize=0;fontColor=#000000;strokeColor=#000000;fillColor=#FFFFFF;" vertex="1" parent="1">
          <mxGeometry x="490" y="147" width="220" height="190" as="geometry" />
        </mxCell>
        <mxCell id="19b9a4ddcf14029d-34" value="" style="shape=ellipse;html=1;fillColor=#000000;verticalLabelPosition=bottom;labelBackgroundColor=#ffffff;verticalAlign=top;fontColor=#000000;strokeColor=#000000;" vertex="1" parent="19b9a4ddcf14029d-33">
          <mxGeometry x="20" y="50" width="20" height="20" as="geometry" />
        </mxCell>
        <mxCell id="19b9a4ddcf14029d-35" value="State 1" style="strokeColor=#000000;fillColor=#FFFFFF;gradientColor=inherit;shape=rect;html=1;rounded=1;whiteSpace=wrap;align=center;fontColor=#000000;" vertex="1" parent="19b9a4ddcf14029d-33">
          <mxGeometry x="80" y="60" width="100" height="40" as="geometry" />
        </mxCell>
        <mxCell id="19b9a4ddcf14029d-36" value="State 2" style="strokeColor=#000000;fillColor=#FFFFFF;gradientColor=inherit;shape=rect;html=1;rounded=1;whiteSpace=wrap;align=center;fontColor=#000000;" vertex="1" parent="19b9a4ddcf14029d-33">
          <mxGeometry x="80" y="130" width="100" height="40" as="geometry" />
        </mxCell>
        <mxCell id="19b9a4ddcf14029d-37" value="" style="strokeColor=#000000;fillColor=inherit;gradientColor=inherit;edgeStyle=none;html=1;endArrow=open;endSize=12;fontColor=#000000;" edge="1" source="19b9a4ddcf14029d-34" target="19b9a4ddcf14029d-35" parent="19b9a4ddcf14029d-33">
          <mxGeometry relative="1" as="geometry" />
        </mxCell>
        <mxCell id="19b9a4ddcf14029d-38" value="" style="strokeColor=#000000;fillColor=inherit;gradientColor=inherit;edgeStyle=none;html=1;endArrow=open;endSize=12;fontColor=#000000;" edge="1" source="19b9a4ddcf14029d-35" target="19b9a4ddcf14029d-36" parent="19b9a4ddcf14029d-33">
          <mxGeometry relative="1" as="geometry" />
        </mxCell>
        <mxCell id="19b9a4ddcf14029d-50" value="Start" style="text;html=1;resizable=0;points=[];autosize=1;align=left;verticalAlign=top;spacingTop=-4;fontColor=#000000;" vertex="1" parent="1">
          <mxGeometry x="86" y="147" width="40" height="20" as="geometry" />
        </mxCell>
        <mxCell id="19b9a4ddcf14029d-51" value="End" style="text;html=1;resizable=0;points=[];autosize=1;align=left;verticalAlign=top;spacingTop=-4;fontColor=#000000;" vertex="1" parent="1">
          <mxGeometry x="86" y="210" width="40" height="20" as="geometry" />
        </mxCell>
        <mxCell id="19b9a4ddcf14029d-53" value="Guard" style="text;html=1;resizable=0;points=[];autosize=1;align=left;verticalAlign=top;spacingTop=-4;fontColor=#000000;" vertex="1" parent="1">
          <mxGeometry x="142" y="287" width="50" height="20" as="geometry" />
        </mxCell>
        <mxCell id="19b9a4ddcf14029d-39" value="" style="shape=rhombus;html=1;labelPosition=right;align=left;verticalAlign=middle;fontColor=#000000;strokeColor=#000000;fillColor=#FFFFFF;" vertex="1" parent="1">
          <mxGeometry x="100" y="277" width="40" height="40" as="geometry" />
        </mxCell>
        <mxCell id="19b9a4ddcf14029d-40" value="" style="edgeStyle=elbowEdgeStyle;html=1;elbow=horizontal;align=right;verticalAlign=bottom;rounded=0;labelBackgroundColor=none;endArrow=open;endSize=12;fontColor=#000000;strokeColor=#000000;" edge="1" target="19b9a4ddcf14029d-39" parent="1">
          <mxGeometry relative="1" as="geometry">
            <mxPoint x="120" y="257" as="sourcePoint" />
          </mxGeometry>
        </mxCell>
        <mxCell id="19b9a4ddcf14029d-41" value="[Condition 1]" style="edgeStyle=elbowEdgeStyle;html=1;elbow=vertical;align=right;endArrow=open;rounded=0;labelBackgroundColor=none;endSize=12;entryX=0.5;entryY=0;fontColor=#000000;strokeColor=#000000;" edge="1" source="19b9a4ddcf14029d-39" parent="1">
          <mxGeometry relative="1" as="geometry">
            <mxPoint x="120" y="357" as="targetPoint" />
          </mxGeometry>
        </mxCell>
        <mxCell id="19b9a4ddcf14029d-42" value="[Condition 2]" style="edgeStyle=elbowEdgeStyle;html=1;elbow=vertical;align=left;endArrow=open;rounded=0;labelBackgroundColor=none;verticalAlign=bottom;endSize=12;entryX=0.5;entryY=0;fontColor=#000000;strokeColor=#000000;" edge="1" source="19b9a4ddcf14029d-39" parent="1">
          <mxGeometry relative="1" as="geometry">
            <mxPoint x="251" y="356" as="targetPoint" />
          </mxGeometry>
        </mxCell>
        <mxCell id="19b9a4ddcf14029d-56" value="" style="edgeStyle=elbowEdgeStyle;html=1;elbow=horizontal;align=right;verticalAlign=bottom;rounded=0;labelBackgroundColor=none;endArrow=open;endSize=12;exitX=0.5;exitY=1;fontColor=#000000;strokeColor=#000000;" edge="1" source="19b9a4ddcf14029d-31" parent="1">
          <mxGeometry relative="1" as="geometry">
            <mxPoint x="189.5" y="207" as="sourcePoint" />
            <mxPoint x="190" y="240" as="targetPoint" />
            <Array as="points" />
          </mxGeometry>
        </mxCell>
        <mxCell id="19b9a4ddcf14029d-57" value="Trigger" style="text;html=1;resizable=0;points=[];align=center;verticalAlign=middle;labelBackgroundColor=#ffffff;fontColor=#000000;" vertex="1" connectable="0" parent="19b9a4ddcf14029d-56">
          <mxGeometry y="-9" relative="1" as="geometry">
            <mxPoint x="8" y="-9" as="offset" />
          </mxGeometry>
        </mxCell>
        <mxCell id="19b9a4ddcf14029d-60" value="&lt;font style=&quot;font-size: 16px&quot;&gt;Basic UML state diagram notation&lt;/font&gt;" style="text;html=1;resizable=0;points=[];autosize=1;align=left;verticalAlign=top;spacingTop=-4;fontColor=#000000;" vertex="1" parent="1">
          <mxGeometry x="203" y="89" width="260" height="20" as="geometry" />
        </mxCell>
        <mxCell id="19b9a4ddcf14029d-61" value="" style="shape=line;html=1;strokeWidth=6;strokeColor=#000000;fontColor=#000000;fillColor=#FF9933;" vertex="1" parent="1">
          <mxGeometry x="120" y="390" width="152" height="10" as="geometry" />
        </mxCell>
        <mxCell id="19b9a4ddcf14029d-62" value="" style="edgeStyle=orthogonalEdgeStyle;html=1;verticalAlign=bottom;endArrow=open;endSize=8;strokeColor=#000000;labelBackgroundColor=none;align=right;fontColor=#000000;" edge="1" source="19b9a4ddcf14029d-61" parent="1">
          <mxGeometry relative="1" as="geometry">
            <mxPoint x="196" y="430" as="targetPoint" />
          </mxGeometry>
        </mxCell>
        <mxCell id="19b9a4ddcf14029d-64" value="" style="edgeStyle=orthogonalEdgeStyle;html=1;verticalAlign=bottom;endArrow=open;endSize=8;strokeColor=#000000;labelBackgroundColor=none;align=right;entryX=0.25;entryY=0.5;entryPerimeter=0;fontColor=#000000;" edge="1" target="19b9a4ddcf14029d-61" parent="1">
          <mxGeometry relative="1" as="geometry">
            <mxPoint x="119.5" y="435" as="targetPoint" />
            <mxPoint x="158" y="370" as="sourcePoint" />
          </mxGeometry>
        </mxCell>
        <mxCell id="19b9a4ddcf14029d-65" value="" style="edgeStyle=orthogonalEdgeStyle;html=1;verticalAlign=bottom;endArrow=open;endSize=8;strokeColor=#000000;labelBackgroundColor=none;align=right;entryX=0.75;entryY=0.5;entryPerimeter=0;fontColor=#000000;" edge="1" target="19b9a4ddcf14029d-61" parent="1">
          <mxGeometry relative="1" as="geometry">
            <mxPoint x="220" y="390" as="targetPoint" />
            <mxPoint x="234" y="370" as="sourcePoint" />
          </mxGeometry>
        </mxCell>
        <mxCell id="19b9a4ddcf14029d-66" value="Join" style="text;html=1;resizable=0;points=[];autosize=1;align=center;verticalAlign=top;spacingTop=-4;fontColor=#000000;" vertex="1" parent="1">
          <mxGeometry x="80" y="384" width="40" height="20" as="geometry" />
        </mxCell>
        <mxCell id="19b9a4ddcf14029d-67" value="" style="shape=line;html=1;strokeWidth=6;strokeColor=#000000;fontColor=#000000;fillColor=#FF9933;" vertex="1" parent="1">
          <mxGeometry x="338" y="389" width="152" height="10" as="geometry" />
        </mxCell>
        <mxCell id="19b9a4ddcf14029d-71" value="Fork" style="text;html=1;resizable=0;points=[];autosize=1;align=center;verticalAlign=top;spacingTop=-4;fontColor=#000000;" vertex="1" parent="1">
          <mxGeometry x="490" y="384" width="40" height="20" as="geometry" />
        </mxCell>
        <mxCell id="19b9a4ddcf14029d-72" value="" style="edgeStyle=orthogonalEdgeStyle;html=1;verticalAlign=bottom;endArrow=open;endSize=8;strokeColor=#000000;labelBackgroundColor=none;align=right;entryX=0.513;entryY=0.7;entryPerimeter=0;fontColor=#000000;" edge="1" target="19b9a4ddcf14029d-67" parent="1">
          <mxGeometry relative="1" as="geometry">
            <mxPoint x="400" y="389" as="targetPoint" />
            <mxPoint x="416" y="380" as="sourcePoint" />
            <Array as="points">
              <mxPoint x="416" y="370" />
              <mxPoint x="416" y="370" />
            </Array>
          </mxGeometry>
        </mxCell>
        <mxCell id="19b9a4ddcf14029d-73" value="" style="edgeStyle=orthogonalEdgeStyle;html=1;verticalAlign=bottom;endArrow=open;endSize=8;strokeColor=#000000;labelBackgroundColor=none;align=right;exitX=0.25;exitY=0.5;exitPerimeter=0;fontColor=#000000;" edge="1" source="19b9a4ddcf14029d-67" parent="1">
          <mxGeometry relative="1" as="geometry">
            <mxPoint x="376" y="430" as="targetPoint" />
            <mxPoint x="430" y="430" as="sourcePoint" />
          </mxGeometry>
        </mxCell>
        <mxCell id="19b9a4ddcf14029d-75" value="" style="edgeStyle=orthogonalEdgeStyle;html=1;verticalAlign=bottom;endArrow=open;endSize=8;strokeColor=#000000;labelBackgroundColor=none;align=right;exitX=0.75;exitY=0.5;exitPerimeter=0;fontColor=#000000;" edge="1" source="19b9a4ddcf14029d-67" parent="1">
          <mxGeometry relative="1" as="geometry">
            <mxPoint x="452" y="430" as="targetPoint" />
            <mxPoint x="386" y="404" as="sourcePoint" />
          </mxGeometry>
        </mxCell>
      </root>
    </mxGraphModel>
  </diagram>
  <diagram id="feecb929-067d-0832-2f76-ca75e0012084" name="Student enrollment example">
    <mxGraphModel pageWidth="850" pageHeight="1100" fold="1" pageScale="1" math="0" shadow="0">
      <root>
        <mxCell id="0" />
        <mxCell id="1" parent="0" />
        <mxCell id="19b9a4ddcf14029d-3" style="edgeStyle=elbowEdgeStyle;rounded=0;elbow=horizontal;html=1;labelBackgroundColor=none;endArrow=open;endSize=12;strokeColor=#000000;fontColor=#000000;align=right;" edge="1" source="19b9a4ddcf14029d-1" target="19b9a4ddcf14029d-2" parent="1">
          <mxGeometry relative="1" as="geometry" />
        </mxCell>
        <mxCell id="19b9a4ddcf14029d-1" value="" style="shape=ellipse;html=1;fillColor=#000000;fontSize=18;fontColor=#ffffff;strokeColor=#000000;align=center;" vertex="1" parent="1">
          <mxGeometry x="20" y="20" width="40" height="40" as="geometry" />
        </mxCell>
        <mxCell id="19b9a4ddcf14029d-10" style="edgeStyle=elbowEdgeStyle;rounded=0;elbow=horizontal;html=1;exitX=0.5;exitY=1;labelBackgroundColor=none;endArrow=open;endSize=12;strokeColor=#000000;fontColor=#000000;align=right;" edge="1" source="19b9a4ddcf14029d-2" target="19b9a4ddcf14029d-8" parent="1">
          <mxGeometry relative="1" as="geometry" />
        </mxCell>
        <mxCell id="19b9a4ddcf14029d-2" value="Student enrolled" style="shape=rect;rounded=1;html=1;whiteSpace=wrap;align=center;strokeColor=#000000;fillColor=#FFFFFF;fontColor=#000000;" vertex="1" parent="1">
          <mxGeometry x="170" y="20" width="100" height="40" as="geometry" />
        </mxCell>
        <mxCell id="19b9a4ddcf14029d-32" value="" style="edgeStyle=elbowEdgeStyle;rounded=0;elbow=horizontal;html=1;labelBackgroundColor=none;endArrow=open;endSize=12;strokeColor=#000000;fontColor=#000000;align=right;" edge="1" source="19b9a4ddcf14029d-22" target="19b9a4ddcf14029d-31" parent="1">
          <mxGeometry relative="1" as="geometry" />
        </mxCell>
        <mxCell id="19b9a4ddcf14029d-22" value="Subjects selected" style="shape=rect;rounded=1;html=1;whiteSpace=wrap;align=center;strokeColor=#000000;fillColor=#FFFFFF;fontColor=#000000;" vertex="1" parent="1">
          <mxGeometry x="240" y="315" width="100" height="40" as="geometry" />
        </mxCell>
        <mxCell id="19b9a4ddcf14029d-36" style="edgeStyle=elbowEdgeStyle;rounded=0;elbow=horizontal;html=1;labelBackgroundColor=none;endArrow=open;endSize=12;strokeColor=#000000;fontColor=#000000;align=right;" edge="1" source="19b9a4ddcf14029d-31" target="19b9a4ddcf14029d-35" parent="1">
          <mxGeometry relative="1" as="geometry" />
        </mxCell>
        <mxCell id="19b9a4ddcf14029d-31" value="Timetable sent" style="shape=rect;rounded=1;html=1;whiteSpace=wrap;align=center;strokeColor=#000000;fillColor=#FFFFFF;fontColor=#000000;" vertex="1" parent="1">
          <mxGeometry x="240" y="375" width="100" height="40" as="geometry" />
        </mxCell>
        <mxCell id="19b9a4ddcf14029d-23" value="" style="shape=rhombus;html=1;labelPosition=right;align=left;verticalAlign=middle;strokeColor=#000000;fillColor=#FFFFFF;fontColor=#000000;" vertex="1" parent="1">
          <mxGeometry x="270" y="245" width="40" height="40" as="geometry" />
        </mxCell>
        <mxCell id="19b9a4ddcf14029d-24" value="" style="edgeStyle=elbowEdgeStyle;html=1;elbow=horizontal;align=right;verticalAlign=bottom;rounded=0;labelBackgroundColor=none;endArrow=open;endSize=12;strokeColor=#000000;fontColor=#000000;exitX=0.447;exitY=0.5;exitPerimeter=0;entryX=0.5;entryY=0;" edge="1" source="19b9a4ddcf14029d-19" target="19b9a4ddcf14029d-23" parent="1">
          <mxGeometry relative="1" as="geometry">
            <mxPoint x="290" y="285" as="sourcePoint" />
            <Array as="points">
              <mxPoint x="290" y="230" />
            </Array>
          </mxGeometry>
        </mxCell>
        <mxCell id="19b9a4ddcf14029d-25" value="[Fees paid]" style="edgeStyle=elbowEdgeStyle;html=1;elbow=vertical;align=right;endArrow=open;rounded=0;labelBackgroundColor=none;endSize=12;strokeColor=#000000;fontColor=#000000;entryX=0.5;entryY=0;" edge="1" source="19b9a4ddcf14029d-23" target="19b9a4ddcf14029d-22" parent="1">
          <mxGeometry relative="1" as="geometry">
            <mxPoint x="290" y="385" as="targetPoint" />
            <mxPoint as="offset" />
          </mxGeometry>
        </mxCell>
        <mxCell id="19b9a4ddcf14029d-29" value="aborted" style="shape=mxgraph.sysml.flowFinal;labelPosition=right;verticalLabelPosition=top;spacingTop=5;spacingLeft=3;align=left;verticalAlign=top;resizable=0;strokeColor=#000000;fillColor=#FFFFFF;fontColor=#000000;" vertex="1" parent="1">
          <mxGeometry x="530" y="255" width="20" height="20" as="geometry" />
        </mxCell>
        <mxCell id="19b9a4ddcf14029d-30" value="[Fees not paid]" style="edgeStyle=elbowEdgeStyle;html=1;elbow=vertical;align=left;endArrow=open;rounded=0;labelBackgroundColor=none;verticalAlign=bottom;endSize=12;strokeColor=#000000;fontColor=#000000;exitX=1;exitY=0.5;" edge="1" source="19b9a4ddcf14029d-23" target="19b9a4ddcf14029d-29" parent="1">
          <mxGeometry relative="1" as="geometry">
            <mxPoint x="420" y="410" as="targetPoint" />
            <mxPoint x="290" y="370" as="sourcePoint" />
            <Array as="points">
              <mxPoint x="380" y="265" />
              <mxPoint x="370" y="290" />
            </Array>
          </mxGeometry>
        </mxCell>
        <mxCell id="19b9a4ddcf14029d-35" value="" style="shape=mxgraph.sysml.actFinal;html=1;verticalLabelPosition=bottom;labelBackgroundColor=#ffffff;verticalAlign=top;strokeColor=#000000;fillColor=#FFFFFF;fontColor=#000000;align=center;" vertex="1" parent="1">
          <mxGeometry x="520" y="375" width="40" height="40" as="geometry" />
        </mxCell>
        <mxCell id="3f6461326caff9b6-7" value="" style="group" vertex="1" connectable="0" parent="1">
          <mxGeometry x="110" y="90" width="380" height="125" as="geometry" />
        </mxCell>
        <mxCell id="19b9a4ddcf14029d-8" value="" style="shape=line;html=1;strokeWidth=6;strokeColor=#000000;fillColor=#FFFFFF;fontColor=#000000;align=center;" vertex="1" parent="3f6461326caff9b6-7">
          <mxGeometry x="10" width="200" height="10" as="geometry" />
        </mxCell>
        <mxCell id="19b9a4ddcf14029d-11" value="StudentID assigned" style="shape=rect;rounded=1;html=1;whiteSpace=wrap;align=center;strokeColor=#000000;fillColor=#FFFFFF;fontColor=#000000;" vertex="1" parent="3f6461326caff9b6-7">
          <mxGeometry y="40" width="100" height="40" as="geometry" />
        </mxCell>
        <mxCell id="19b9a4ddcf14029d-12" style="edgeStyle=elbowEdgeStyle;rounded=0;elbow=horizontal;html=1;labelBackgroundColor=none;endArrow=open;endSize=12;strokeColor=#000000;fontColor=#000000;align=right;" edge="1" source="19b9a4ddcf14029d-8" target="19b9a4ddcf14029d-11" parent="3f6461326caff9b6-7">
          <mxGeometry relative="1" as="geometry">
            <mxPoint x="50" y="40" as="targetPoint" />
          </mxGeometry>
        </mxCell>
        <mxCell id="19b9a4ddcf14029d-15" value="Undergrad" style="edgeStyle=elbowEdgeStyle;html=1;elbow=vertical;align=right;endArrow=open;rounded=0;labelBackgroundColor=none;endSize=12;strokeColor=#000000;fontColor=#000000;exitX=0.8;exitY=0.3;exitPerimeter=0;entryX=0.417;entryY=0.5;entryPerimeter=0;" edge="1" source="19b9a4ddcf14029d-8" target="19b9a4ddcf14029d-19" parent="3f6461326caff9b6-7">
          <mxGeometry relative="1" as="geometry">
            <mxPoint x="170" y="140" as="targetPoint" />
            <mxPoint x="170" y="100" as="sourcePoint" />
          </mxGeometry>
        </mxCell>
        <mxCell id="19b9a4ddcf14029d-16" value="Postgrad" style="edgeStyle=elbowEdgeStyle;html=1;elbow=vertical;align=left;endArrow=open;rounded=0;labelBackgroundColor=none;verticalAlign=bottom;endSize=12;strokeColor=#000000;fontColor=#000000;entryX=0.5;entryY=0;exitX=0.8;exitY=0.6;exitPerimeter=0;" edge="1" source="19b9a4ddcf14029d-8" target="19b9a4ddcf14029d-20" parent="3f6461326caff9b6-7">
          <mxGeometry relative="1" as="geometry">
            <mxPoint x="300" y="140" as="targetPoint" />
            <mxPoint x="170" y="100" as="sourcePoint" />
          </mxGeometry>
        </mxCell>
        <mxCell id="19b9a4ddcf14029d-19" value="" style="shape=line;html=1;strokeWidth=6;strokeColor=#000000;fillColor=#FFFFFF;fontColor=#000000;align=center;" vertex="1" parent="3f6461326caff9b6-7">
          <mxGeometry x="20" y="115" width="360" height="10" as="geometry" />
        </mxCell>
        <mxCell id="19b9a4ddcf14029d-18" style="edgeStyle=elbowEdgeStyle;rounded=0;elbow=horizontal;html=1;labelBackgroundColor=none;endArrow=open;endSize=12;strokeColor=#000000;fontColor=#000000;align=right;exitX=0.5;exitY=1;" edge="1" source="19b9a4ddcf14029d-11" target="19b9a4ddcf14029d-19" parent="3f6461326caff9b6-7">
          <mxGeometry relative="1" as="geometry">
            <mxPoint x="50" y="190" as="targetPoint" />
            <mxPoint x="50" y="80" as="sourcePoint" />
          </mxGeometry>
        </mxCell>
        <mxCell id="19b9a4ddcf14029d-21" style="edgeStyle=elbowEdgeStyle;rounded=0;elbow=horizontal;html=1;exitX=0.5;exitY=1;labelBackgroundColor=none;endArrow=open;endSize=12;strokeColor=#000000;fontColor=#000000;align=right;" edge="1" source="19b9a4ddcf14029d-20" target="19b9a4ddcf14029d-19" parent="3f6461326caff9b6-7">
          <mxGeometry relative="1" as="geometry" />
        </mxCell>
        <mxCell id="19b9a4ddcf14029d-20" value="Supervisor assigned" style="shape=rect;rounded=1;html=1;whiteSpace=wrap;align=center;strokeColor=#000000;fillColor=#FFFFFF;fontColor=#000000;" vertex="1" parent="3f6461326caff9b6-7">
          <mxGeometry x="250" y="50" width="100" height="40" as="geometry" />
        </mxCell>
      </root>
    </mxGraphModel>
  </diagram>
  <diagram id="9c28e6cf-dd68-194a-c9a1-9ff6bf67635e" name="Grouped - student enrolment">
    <mxGraphModel pageWidth="850" pageHeight="1100" fold="1" pageScale="1" math="0" shadow="0">
      <root>
        <mxCell id="0" />
        <mxCell id="1" parent="0" />
        <mxCell id="2" style="edgeStyle=elbowEdgeStyle;rounded=0;elbow=horizontal;html=1;labelBackgroundColor=none;endArrow=open;endSize=12;strokeColor=#000000;fontColor=#000000;align=right;" edge="1" source="3" target="5" parent="1">
          <mxGeometry relative="1" as="geometry" />
        </mxCell>
        <mxCell id="3" value="" style="shape=ellipse;html=1;fillColor=#000000;fontSize=18;fontColor=#ffffff;strokeColor=#000000;align=center;" vertex="1" parent="1">
          <mxGeometry x="20" y="20" width="40" height="40" as="geometry" />
        </mxCell>
        <mxCell id="4" style="edgeStyle=elbowEdgeStyle;rounded=0;elbow=horizontal;html=1;exitX=0.5;exitY=1;labelBackgroundColor=none;endArrow=open;endSize=12;strokeColor=#000000;fontColor=#000000;align=right;" edge="1" source="5" target="7" parent="1">
          <mxGeometry relative="1" as="geometry" />
        </mxCell>
        <mxCell id="5" value="Student enrolled" style="shape=rect;rounded=1;html=1;whiteSpace=wrap;align=center;strokeColor=#000000;fillColor=#FFFFFF;fontColor=#000000;" vertex="1" parent="1">
          <mxGeometry x="170" y="20" width="100" height="40" as="geometry" />
        </mxCell>
        <mxCell id="15" value="" style="edgeStyle=elbowEdgeStyle;rounded=0;elbow=horizontal;html=1;labelBackgroundColor=none;endArrow=open;endSize=12;strokeColor=#000000;fontColor=#000000;align=right;" edge="1" source="16" target="18" parent="1">
          <mxGeometry relative="1" as="geometry" />
        </mxCell>
        <mxCell id="16" value="Subjects selected" style="shape=rect;rounded=1;html=1;whiteSpace=wrap;align=center;strokeColor=#000000;fillColor=#FFFFFF;fontColor=#000000;" vertex="1" parent="1">
          <mxGeometry x="240" y="315" width="100" height="40" as="geometry" />
        </mxCell>
        <mxCell id="17" style="edgeStyle=elbowEdgeStyle;rounded=0;elbow=horizontal;html=1;labelBackgroundColor=none;endArrow=open;endSize=12;strokeColor=#000000;fontColor=#000000;align=right;" edge="1" source="18" target="24" parent="1">
          <mxGeometry relative="1" as="geometry" />
        </mxCell>
        <mxCell id="18" value="Timetable sent" style="shape=rect;rounded=1;html=1;whiteSpace=wrap;align=center;strokeColor=#000000;fillColor=#FFFFFF;fontColor=#000000;" vertex="1" parent="1">
          <mxGeometry x="240" y="375" width="100" height="40" as="geometry" />
        </mxCell>
        <mxCell id="19" value="" style="shape=rhombus;html=1;labelPosition=right;align=left;verticalAlign=middle;strokeColor=#000000;fillColor=#FFFFFF;fontColor=#000000;" vertex="1" parent="1">
          <mxGeometry x="270" y="245" width="40" height="40" as="geometry" />
        </mxCell>
        <mxCell id="20" value="" style="edgeStyle=elbowEdgeStyle;html=1;elbow=horizontal;align=right;verticalAlign=bottom;rounded=0;labelBackgroundColor=none;endArrow=open;endSize=12;strokeColor=#000000;fontColor=#000000;exitX=0.447;exitY=0.5;exitPerimeter=0;entryX=0.5;entryY=0;" edge="1" source="12" target="19" parent="1">
          <mxGeometry relative="1" as="geometry">
            <mxPoint x="290" y="285" as="sourcePoint" />
            <Array as="points">
              <mxPoint x="290" y="230" />
            </Array>
          </mxGeometry>
        </mxCell>
        <mxCell id="21" value="[Fees paid]" style="edgeStyle=elbowEdgeStyle;html=1;elbow=vertical;align=right;endArrow=open;rounded=0;labelBackgroundColor=none;endSize=12;strokeColor=#000000;fontColor=#000000;entryX=0.5;entryY=0;" edge="1" source="19" target="16" parent="1">
          <mxGeometry relative="1" as="geometry">
            <mxPoint x="290" y="385" as="targetPoint" />
            <mxPoint as="offset" />
          </mxGeometry>
        </mxCell>
        <mxCell id="22" value="aborted" style="shape=mxgraph.sysml.flowFinal;labelPosition=right;verticalLabelPosition=top;spacingTop=5;spacingLeft=3;align=left;verticalAlign=top;resizable=0;strokeColor=#000000;fillColor=#FFFFFF;fontColor=#000000;" vertex="1" parent="1">
          <mxGeometry x="530" y="255" width="20" height="20" as="geometry" />
        </mxCell>
        <mxCell id="23" value="[Fees not paid]" style="edgeStyle=elbowEdgeStyle;html=1;elbow=vertical;align=left;endArrow=open;rounded=0;labelBackgroundColor=none;verticalAlign=bottom;endSize=12;strokeColor=#000000;fontColor=#000000;exitX=1;exitY=0.5;" edge="1" source="19" target="22" parent="1">
          <mxGeometry relative="1" as="geometry">
            <mxPoint x="420" y="410" as="targetPoint" />
            <mxPoint x="290" y="370" as="sourcePoint" />
            <Array as="points">
              <mxPoint x="380" y="265" />
              <mxPoint x="370" y="290" />
            </Array>
          </mxGeometry>
        </mxCell>
        <mxCell id="24" value="" style="shape=mxgraph.sysml.actFinal;html=1;verticalLabelPosition=bottom;labelBackgroundColor=#ffffff;verticalAlign=top;strokeColor=#000000;fillColor=#FFFFFF;fontColor=#000000;align=center;" vertex="1" parent="1">
          <mxGeometry x="520" y="375" width="40" height="40" as="geometry" />
        </mxCell>
        <mxCell id="7" value="" style="shape=line;html=1;strokeWidth=6;strokeColor=#000000;fillColor=#FFFFFF;fontColor=#000000;align=center;" vertex="1" parent="1">
          <mxGeometry x="120" y="90" width="200" height="10" as="geometry" />
        </mxCell>
        <mxCell id="9" value="StudentID assigned" style="shape=rect;rounded=1;html=1;whiteSpace=wrap;align=center;strokeColor=#000000;fillColor=#FFFFFF;fontColor=#000000;" vertex="1" parent="1">
          <mxGeometry x="110" y="130" width="100" height="40" as="geometry" />
        </mxCell>
        <mxCell id="6" style="edgeStyle=elbowEdgeStyle;rounded=0;elbow=horizontal;html=1;labelBackgroundColor=none;endArrow=open;endSize=12;strokeColor=#000000;fontColor=#000000;align=right;" edge="1" source="7" target="9" parent="1">
          <mxGeometry relative="1" as="geometry">
            <mxPoint x="160" y="130" as="targetPoint" />
          </mxGeometry>
        </mxCell>
        <mxCell id="10" value="Undergrad" style="edgeStyle=elbowEdgeStyle;html=1;elbow=vertical;align=right;endArrow=open;rounded=0;labelBackgroundColor=none;endSize=12;strokeColor=#000000;fontColor=#000000;exitX=0.8;exitY=0.3;exitPerimeter=0;entryX=0.417;entryY=0.5;entryPerimeter=0;" edge="1" source="7" target="12" parent="1">
          <mxGeometry relative="1" as="geometry">
            <mxPoint x="280" y="230" as="targetPoint" />
            <mxPoint x="280" y="190" as="sourcePoint" />
          </mxGeometry>
        </mxCell>
        <mxCell id="11" value="Postgrad" style="edgeStyle=elbowEdgeStyle;html=1;elbow=vertical;align=left;endArrow=open;rounded=0;labelBackgroundColor=none;verticalAlign=bottom;endSize=12;strokeColor=#000000;fontColor=#000000;entryX=0.5;entryY=0;exitX=0.8;exitY=0.6;exitPerimeter=0;" edge="1" source="7" target="14" parent="1">
          <mxGeometry relative="1" as="geometry">
            <mxPoint x="410" y="230" as="targetPoint" />
            <mxPoint x="280" y="190" as="sourcePoint" />
          </mxGeometry>
        </mxCell>
        <mxCell id="12" value="" style="shape=line;html=1;strokeWidth=6;strokeColor=#000000;fillColor=#FFFFFF;fontColor=#000000;align=center;" vertex="1" parent="1">
          <mxGeometry x="130" y="205" width="360" height="10" as="geometry" />
        </mxCell>
        <mxCell id="8" style="edgeStyle=elbowEdgeStyle;rounded=0;elbow=horizontal;html=1;labelBackgroundColor=none;endArrow=open;endSize=12;strokeColor=#000000;fontColor=#000000;align=right;exitX=0.5;exitY=1;" edge="1" source="9" target="12" parent="1">
          <mxGeometry relative="1" as="geometry">
            <mxPoint x="160" y="280" as="targetPoint" />
            <mxPoint x="160" y="170" as="sourcePoint" />
          </mxGeometry>
        </mxCell>
        <mxCell id="13" style="edgeStyle=elbowEdgeStyle;rounded=0;elbow=horizontal;html=1;exitX=0.5;exitY=1;labelBackgroundColor=none;endArrow=open;endSize=12;strokeColor=#000000;fontColor=#000000;align=right;" edge="1" source="14" target="12" parent="1">
          <mxGeometry relative="1" as="geometry" />
        </mxCell>
        <mxCell id="14" value="Supervisor assigned" style="shape=rect;rounded=1;html=1;whiteSpace=wrap;align=center;strokeColor=#000000;fillColor=#FFFFFF;fontColor=#000000;" vertex="1" parent="1">
          <mxGeometry x="360" y="140" width="100" height="40" as="geometry" />
        </mxCell>
      </root>
    </mxGraphModel>
  </diagram>
</mxfile>
